<svg xmlns="http://www.w3.org/2000/svg" viewBox="0 0 240 240" width="240" height="240">
  <defs>
    <linearGradient id="accent" x1="0%" y1="0%" x2="100%" y2="100%">
      <stop offset="0%" style="stop-color:#3b82f6"/>
      <stop offset="50%" style="stop-color:#8b5cf6"/>
      <stop offset="100%" style="stop-color:#06b6d4"/>
    </linearGradient>
  </defs>
  <!-- Gear -->
  <g transform="translate(120, 120)">
    <circle cx="0" cy="0" r="64" fill="none" stroke="url(#accent)" stroke-width="7"/>
    <circle cx="0" cy="0" r="28" fill="none" stroke="url(#accent)" stroke-width="5"/>
    <circle cx="0" cy="0" r="10" fill="url(#accent)" opacity="0.6"/>
    <g stroke="url(#accent)" stroke-width="7">
      <line x1="0" y1="-64" x2="0" y2="-84"/>
      <line x1="56" y1="-32" x2="72" y2="-42"/>
      <line x1="56" y1="32" x2="72" y2="42"/>
      <line x1="0" y1="64" x2="0" y2="84"/>
      <line x1="-56" y1="32" x2="-72" y2="42"/>
      <line x1="-56" y1="-32" x2="-72" y2="-42"/>
    </g>
  </g>
  <!-- Knowledge graph nodes -->
  <g opacity="0.55">
    <circle cx="180" cy="50" r="10" fill="#3b82f6"/>
    <circle cx="210" cy="100" r="8" fill="#8b5cf6"/>
    <circle cx="184" cy="144" r="8" fill="#06b6d4"/>
    <line x1="180" y1="50" x2="210" y2="100" stroke="#8b5cf6" stroke-width="3"/>
    <line x1="210" y1="100" x2="184" y2="144" stroke="#06b6d4" stroke-width="3"/>
    <line x1="180" y1="50" x2="156" y2="70" stroke="#3b82f6" stroke-width="3"/>
  </g>
</svg>
